<svg data-v-423bf9ae="" xmlns="http://www.w3.org/2000/svg" viewBox="0 0 558 90" class="iconLeftSlogan"><!----><!----><!----><g data-v-423bf9ae="" id="af8425d6-2750-4bc6-bfb3-bb73aa64c336" fill="black" transform="matrix(4.441154479980469,0,0,4.441154479980469,104.44856262207031,-0.8882290720939636)"><path d="M8.16 10.64L7.52 7.97C7.15 6.43 6.72 5.94 5.80 5.68C7.08 5.40 7.77 4.62 7.77 3.30C7.77 2.13 7.35 1.41 6.48 1.05C5.94 0.83 5.19 0.76 4.21 0.76L1.25 0.76L1.25 10.64L2.37 10.64L2.37 6.03L3.93 6.03C4.56 6.03 5.01 6.08 5.46 6.34C5.89 6.61 6.22 7.25 6.43 8.12L7.01 10.64ZM2.37 5.33L2.37 1.44L4.26 1.44C5.00 1.44 5.46 1.50 5.84 1.67C6.43 1.92 6.59 2.56 6.59 3.33C6.59 4.13 6.34 4.70 5.85 5.01C5.52 5.24 4.93 5.33 4.12 5.33ZM15.16 7.10L15.16 6.82C15.16 6.06 15.09 5.33 14.83 4.76C14.43 3.93 13.85 3.40 12.43 3.40C10.50 3.40 9.39 4.72 9.39 7.08C9.39 9.67 10.49 10.82 12.56 10.82C13.68 10.82 14.39 10.56 14.88 10.29L14.88 9.49C14.31 9.80 13.71 10.11 12.73 10.11C11.28 10.11 10.49 9.09 10.47 7.10ZM14.03 6.51L10.50 6.51C10.56 4.61 11.49 4.02 12.39 4.02C13.78 4.02 14.03 5.00 14.03 6.51ZM20.89 10.64L21.91 10.64C21.74 10.11 21.73 9.56 21.73 9.09L21.73 5.80C21.73 4.79 21.53 4.33 21.17 3.95C20.73 3.51 20.03 3.40 19.33 3.40C18.65 3.40 17.74 3.56 17.00 3.91L17.00 4.72C17.86 4.24 18.62 4.14 19.21 4.14C19.73 4.14 20.13 4.28 20.37 4.59C20.61 4.90 20.69 5.39 20.69 5.91L20.69 6.54C20.44 6.52 20.08 6.51 19.81 6.51C17.36 6.51 16.32 7.28 16.32 8.65C16.32 9.90 17.15 10.81 18.58 10.81C19.70 10.81 20.36 10.32 20.72 9.66C20.73 9.93 20.82 10.40 20.89 10.64ZM20.69 7.11L20.69 8.11C20.69 8.57 20.62 9.03 20.36 9.34C19.99 9.79 19.45 10.09 18.79 10.09C17.89 10.09 17.39 9.52 17.39 8.62C17.39 7.78 17.99 7.10 20.01 7.10C20.23 7.10 20.50 7.10 20.69 7.11ZM25.12 10.64L25.12 0.20L24.05 0.20L24.05 10.64ZM38.60 5.54C38.60 2.21 37.35 0.55 34.61 0.55C32.03 0.55 30.38 2.16 30.38 5.70C30.38 9.14 31.71 10.84 34.41 10.84C37.24 10.84 38.60 9.09 38.60 5.54ZM37.42 5.66C37.42 8.78 36.44 10.14 34.44 10.14C32.65 10.14 31.56 8.92 31.56 5.67C31.56 2.65 32.61 1.25 34.55 1.25C36.60 1.25 37.42 2.69 37.42 5.66ZM45.00 10.64L46.03 10.64L46.03 6.48C46.03 5.64 46.00 5.25 45.95 4.87C45.79 3.78 44.97 3.40 43.99 3.40C43.34 3.40 42.18 3.68 41.54 4.61C41.54 4.48 41.48 3.82 41.43 3.58L40.39 3.58C40.49 4.24 40.53 5.43 40.53 6.26L40.53 10.64L41.58 10.64L41.58 6.40C41.58 5.59 41.64 5.32 41.89 4.94C42.27 4.40 42.97 4.12 43.60 4.12C44.31 4.12 44.72 4.40 44.87 4.94C44.97 5.31 45.00 5.82 45.00 6.68ZM49.43 10.64L49.43 0.20L48.37 0.20L48.37 10.64ZM52.88 10.64L52.88 3.58L51.81 3.58L51.81 10.64ZM52.99 1.40C52.99 0.87 52.79 0.70 52.36 0.70C51.91 0.70 51.69 0.88 51.69 1.40C51.69 1.95 51.90 2.10 52.33 2.10C52.78 2.10 52.99 1.92 52.99 1.40ZM59.74 10.64L60.77 10.64L60.77 6.48C60.77 5.64 60.75 5.25 60.69 4.87C60.54 3.78 59.71 3.40 58.73 3.40C58.09 3.40 56.92 3.68 56.28 4.61C56.28 4.48 56.22 3.82 56.17 3.58L55.13 3.58C55.23 4.24 55.27 5.43 55.27 6.26L55.27 10.64L56.32 10.64L56.32 6.40C56.32 5.59 56.38 5.32 56.63 4.94C57.01 4.40 57.71 4.12 58.34 4.12C59.05 4.12 59.46 4.40 59.61 4.94C59.71 5.31 59.74 5.82 59.74 6.68ZM68.39 7.10L68.39 6.82C68.39 6.06 68.32 5.33 68.05 4.76C67.66 3.93 67.07 3.40 65.66 3.40C63.73 3.40 62.62 4.72 62.62 7.08C62.62 9.67 63.71 10.82 65.79 10.82C66.91 10.82 67.62 10.56 68.11 10.29L68.11 9.49C67.54 9.80 66.93 10.11 65.95 10.11C64.51 10.11 63.71 9.09 63.70 7.10ZM67.26 6.51L63.73 6.51C63.78 4.61 64.72 4.02 65.62 4.02C67.00 4.02 67.26 5.00 67.26 6.51ZM77.63 8.05C77.63 9.27 76.97 10.08 75.42 10.08C74.40 10.08 73.60 9.73 72.86 9.35L72.86 10.32C73.51 10.63 74.54 10.84 75.40 10.84C77.49 10.84 78.72 9.67 78.72 8.06C78.72 6.72 78.18 5.94 76.47 5.17L75.54 4.76C74.38 4.26 74.03 3.67 74.03 3.07C74.03 1.86 74.76 1.30 76.06 1.30C76.97 1.30 77.59 1.58 78.27 1.92L78.27 0.98C77.64 0.70 76.87 0.55 76.03 0.55C74.20 0.55 73.01 1.55 73.01 3.16C73.01 4.47 73.65 5.21 75.10 5.84L76.05 6.24C77.14 6.72 77.63 7.28 77.63 8.05ZM85.16 10.64L86.20 10.64L86.20 6.48C86.20 5.64 86.20 5.25 86.11 4.87C85.89 3.81 85.19 3.40 84.17 3.40C83.50 3.40 82.47 3.61 81.76 4.41L81.76 0.20L80.70 0.20L80.70 10.64L81.75 10.64L81.75 6.24C81.75 5.46 81.77 5.17 82.05 4.82C82.46 4.33 83.19 4.13 83.76 4.13C84.48 4.13 84.85 4.42 85.02 4.98C85.12 5.33 85.16 5.85 85.16 6.71ZM94.23 7.10C94.23 4.52 93.31 3.40 91.24 3.40C89.25 3.40 88.05 4.69 88.05 7.11C88.05 9.53 89.11 10.81 91.11 10.81C93.30 10.81 94.23 9.42 94.23 7.10ZM93.14 7.08C93.14 8.96 92.64 10.19 91.17 10.19C89.81 10.19 89.14 9.14 89.14 7.13C89.14 5.00 89.91 4.03 91.21 4.03C92.58 4.03 93.14 4.98 93.14 7.08ZM97.16 4.41C97.13 4.19 97.08 3.79 97.03 3.58L96.01 3.58C96.08 4.03 96.14 4.69 96.14 5.22L96.14 13.71L97.19 13.71L97.19 10.16C97.68 10.60 98.28 10.79 99.11 10.79C100.35 10.79 101.96 10.08 101.96 7.01C101.96 4.63 100.98 3.43 99.30 3.43C98.39 3.43 97.72 3.77 97.16 4.41ZM97.17 7.18C97.17 5.29 97.27 4.93 97.78 4.52C98.03 4.33 98.52 4.06 99.09 4.06C100.23 4.06 100.87 4.98 100.87 7.03C100.87 9.25 100.11 10.16 98.99 10.16C98.41 10.16 97.90 10.05 97.54 9.65C97.22 9.30 97.17 8.74 97.17 7.18Z"></path></g><!----><g data-v-423bf9ae="" id="9fcbde7c-4235-4dd5-8ee3-3d906224a401" transform="matrix(2.8125,0,0,2.8125,0,0)" stroke="none" fill="black"><path d="M9.663 12.988L12.675 16l-6.338 6.337 3.326 3.326L16 19.325l3.012 3.012-6.337 6.338L16 32l6.337-6.337 3.326-3.326L32 16l-3.325-3.325-6.338 6.337L19.325 16l6.338-6.337-3.326-3.326L16 12.675l-3.012-3.012 6.337-6.338L16 0 9.663 6.337 6.337 9.663 0 16l3.325 3.325z"></path></g><!----><g data-v-423bf9ae="" id="0947e592-2315-469e-91bd-ccb1aaf8d635" fill="black" transform="matrix(1.858778953552246,0,0,1.858778953552246,108.69886016845703,52.95522689819336)"><path d="M9.53 3.92L8.90 3.92L7.69 3.92L7.69 4.19C7.69 4.34 7.78 4.42 7.97 4.44L8.11 4.44C8.18 4.44 8.29 4.45 8.43 4.45C8.57 4.45 8.74 4.47 8.90 4.47L8.90 12.22C8.90 12.35 8.90 12.49 8.92 12.63L2.51 4.05C2.46 3.99 2.44 3.95 2.39 3.93C2.35 3.92 2.31 3.91 2.24 3.91L1.89 3.91L0.70 3.91L0.70 4.19C0.70 4.34 0.80 4.42 0.98 4.44L1.12 4.44C1.19 4.44 1.29 4.45 1.43 4.45C1.57 4.45 1.72 4.47 1.89 4.47L1.89 13.26C1.72 13.26 1.57 13.27 1.43 13.27C1.29 13.27 1.19 13.29 1.12 13.29L0.98 13.29C0.80 13.30 0.70 13.38 0.70 13.54L0.70 13.82L1.89 13.82L2.51 13.82L3.72 13.82L3.72 13.54C3.72 13.38 3.63 13.30 3.44 13.29L3.30 13.29C3.23 13.29 3.11 13.27 2.97 13.27C2.83 13.27 2.67 13.26 2.51 13.26L2.51 5.49C2.51 5.36 2.51 5.22 2.49 5.08L8.93 13.68C9.00 13.78 9.07 13.82 9.18 13.82L9.53 13.82L9.53 4.47C9.70 4.47 9.84 4.45 9.98 4.45C10.12 4.45 10.23 4.44 10.30 4.44L10.43 4.44C10.61 4.42 10.71 4.34 10.71 4.19L10.71 3.92ZM28.01 8.86C28.01 8.11 27.89 7.41 27.66 6.79C27.44 6.17 27.12 5.64 26.70 5.19C26.28 4.75 25.79 4.40 25.21 4.16C24.64 3.92 23.98 3.79 23.28 3.79C22.58 3.79 21.95 3.92 21.38 4.16C20.80 4.40 20.30 4.75 19.88 5.19C19.46 5.64 19.14 6.17 18.91 6.79C18.69 7.41 18.56 8.11 18.56 8.86C18.56 9.63 18.69 10.33 18.91 10.95C19.14 11.56 19.46 12.10 19.88 12.54C20.30 12.99 20.80 13.33 21.38 13.57C21.95 13.80 22.58 13.93 23.28 13.93C23.98 13.93 24.64 13.80 25.21 13.57C25.79 13.33 26.28 12.99 26.70 12.54C27.12 12.10 27.44 11.56 27.66 10.95C27.89 10.33 28.01 9.63 28.01 8.86ZM27.26 8.86C27.26 9.56 27.17 10.18 26.98 10.72C26.78 11.27 26.52 11.75 26.17 12.12C25.82 12.50 25.40 12.81 24.91 13.01C24.42 13.20 23.88 13.30 23.28 13.30C22.69 13.30 22.16 13.20 21.67 13.01C21.18 12.81 20.76 12.50 20.41 12.12C20.06 11.75 19.78 11.27 19.59 10.72C19.39 10.18 19.31 9.56 19.31 8.86C19.31 8.18 19.39 7.55 19.59 7.00C19.78 6.45 20.06 5.98 20.41 5.60C20.76 5.22 21.18 4.91 21.67 4.72C22.16 4.52 22.69 4.41 23.28 4.41C23.88 4.41 24.42 4.52 24.91 4.72C25.40 4.91 25.82 5.22 26.17 5.60C26.52 5.98 26.78 6.45 26.98 7.00C27.17 7.55 27.26 8.18 27.26 8.86ZM52.39 9.91C52.25 9.65 52.05 9.39 51.81 9.21C51.58 9.03 51.32 8.88 51.03 8.75C50.74 8.62 50.41 8.51 50.11 8.41C49.80 8.32 49.49 8.20 49.20 8.11C48.90 7.99 48.64 7.87 48.40 7.71C48.16 7.56 47.98 7.38 47.84 7.15C47.70 6.93 47.61 6.65 47.61 6.31C47.61 6.06 47.67 5.82 47.77 5.59C47.87 5.35 48.01 5.15 48.19 4.97C48.37 4.79 48.59 4.65 48.87 4.55C49.15 4.45 49.46 4.40 49.83 4.40C50.50 4.40 51.11 4.51 51.67 4.75C51.72 5.54 51.74 5.99 51.74 6.06C51.76 6.29 51.84 6.41 52.04 6.41L52.37 6.41L52.37 4.38C51.49 4.00 50.65 3.81 49.83 3.81C49.36 3.81 48.96 3.88 48.59 4.02C48.23 4.16 47.94 4.34 47.70 4.58C47.46 4.82 47.26 5.08 47.14 5.39C47.01 5.70 46.96 6.02 46.96 6.36C46.96 6.78 47.03 7.14 47.17 7.42C47.31 7.70 47.50 7.92 47.74 8.12C47.98 8.32 48.23 8.46 48.52 8.58C48.82 8.71 49.14 8.82 49.45 8.92C49.76 9.02 50.05 9.11 50.36 9.21C50.65 9.31 50.92 9.45 51.16 9.60C51.39 9.76 51.58 9.94 51.72 10.16C51.86 10.39 51.93 10.68 51.93 11.03C51.93 11.35 51.87 11.66 51.76 11.94C51.65 12.22 51.49 12.46 51.28 12.67C51.07 12.88 50.81 13.05 50.50 13.16C50.19 13.29 49.84 13.33 49.45 13.33C48.66 13.33 48.01 13.20 47.47 12.95C47.46 12.75 47.46 12.54 47.45 12.32C47.43 12.10 47.43 11.91 47.42 11.76C47.40 11.61 47.40 11.52 47.40 11.51C47.39 11.28 47.29 11.17 47.10 11.17L46.76 11.17L46.76 13.02L46.76 13.20L46.76 13.38C47.61 13.75 48.50 13.93 49.42 13.93C49.92 13.93 50.37 13.85 50.76 13.69C51.16 13.54 51.49 13.31 51.76 13.05C52.02 12.78 52.25 12.46 52.39 12.10C52.53 11.73 52.60 11.34 52.60 10.92C52.60 10.51 52.53 10.18 52.39 9.91ZM68.59 12.21C68.56 12.18 68.52 12.15 68.47 12.15C68.45 12.15 68.43 12.15 68.40 12.17C68.39 12.18 68.36 12.21 68.33 12.22C68.14 12.40 67.93 12.56 67.73 12.70C67.54 12.84 67.33 12.94 67.09 13.03C66.85 13.13 66.60 13.20 66.32 13.24C66.04 13.29 65.73 13.31 65.38 13.31C64.82 13.31 64.27 13.22 63.80 13.01C63.31 12.81 62.90 12.52 62.55 12.14C62.20 11.76 61.91 11.28 61.71 10.74C61.52 10.19 61.42 9.56 61.42 8.86C61.42 8.18 61.52 7.56 61.71 7.01C61.92 6.47 62.20 6.01 62.57 5.61C62.93 5.24 63.36 4.94 63.87 4.73C64.37 4.52 64.92 4.42 65.52 4.42C66.42 4.42 67.24 4.56 67.97 4.89C68.01 5.78 68.05 6.30 68.05 6.41C68.07 6.64 68.15 6.75 68.35 6.75L68.68 6.75L68.68 4.51C67.51 4.03 66.44 3.81 65.52 3.81C64.81 3.81 64.16 3.92 63.56 4.17C62.97 4.42 62.44 4.76 62.02 5.21C61.59 5.66 61.26 6.19 61.03 6.80C60.79 7.42 60.68 8.11 60.68 8.86C60.68 9.63 60.80 10.32 61.03 10.95C61.25 11.58 61.57 12.10 61.98 12.54C62.38 12.99 62.87 13.33 63.45 13.57C64.02 13.80 64.64 13.93 65.32 13.93C65.73 13.93 66.11 13.90 66.46 13.83C66.79 13.76 67.12 13.66 67.41 13.54C67.69 13.41 67.96 13.26 68.19 13.09C68.43 12.91 68.66 12.73 68.87 12.50ZM86.17 13.22L85.71 13.17L81.93 3.91L81.21 3.91L77.42 13.17L76.97 13.22C76.79 13.23 76.71 13.33 76.71 13.50L76.71 13.82L77.15 13.82L77.45 13.82L77.70 13.82L77.80 13.82L79.11 13.82L79.11 13.50C79.11 13.31 79.00 13.23 78.79 13.22C78.78 13.22 78.75 13.20 78.71 13.20C78.67 13.20 78.61 13.19 78.51 13.19C78.41 13.19 78.29 13.19 78.15 13.17L79.13 10.75L79.20 10.57L83.93 10.57L84 10.75L84.98 13.17C84.84 13.19 84.73 13.19 84.63 13.19C84.53 13.19 84.46 13.20 84.42 13.20C84.38 13.20 84.35 13.22 84.34 13.22C84.13 13.23 84.01 13.31 84.01 13.50L84.01 13.82L85.33 13.82L85.43 13.82L85.69 13.82L85.97 13.82L86.44 13.82L86.44 13.50C86.44 13.33 86.35 13.23 86.17 13.22ZM81.37 5.22C81.40 5.14 81.44 5.04 81.47 4.94C81.49 4.84 81.54 4.75 81.56 4.63C81.59 4.75 81.63 4.84 81.66 4.94C81.69 5.04 81.73 5.12 81.76 5.21L83.72 10.04L79.42 10.04ZM106.54 4.44C106.72 4.42 106.82 4.34 106.82 4.19L106.82 3.92L105.64 3.92L105.14 3.92C105.07 3.92 105.03 3.92 104.99 3.93C104.94 3.95 104.92 3.99 104.87 4.05L100.98 10.92C100.94 10.99 100.91 11.06 100.88 11.13C100.86 11.20 100.83 11.28 100.80 11.35C100.74 11.20 100.69 11.06 100.62 10.93L96.61 4.05C96.57 3.99 96.54 3.95 96.50 3.93C96.46 3.92 96.42 3.92 96.35 3.92L95.86 3.92L94.67 3.92L94.67 4.19C94.67 4.34 94.77 4.42 94.95 4.44L95.09 4.44C95.16 4.44 95.26 4.45 95.40 4.45C95.54 4.45 95.69 4.47 95.86 4.47L95.86 13.26C95.69 13.26 95.54 13.27 95.40 13.27C95.26 13.27 95.16 13.29 95.09 13.29L94.95 13.29C94.77 13.30 94.67 13.38 94.67 13.54L94.67 13.82L95.86 13.82L96.47 13.82L97.69 13.82L97.69 13.54C97.69 13.38 97.59 13.30 97.41 13.29L97.27 13.29C97.20 13.29 97.09 13.27 96.95 13.27C96.81 13.27 96.64 13.26 96.47 13.26L96.47 5.38C96.47 5.25 96.47 5.12 96.46 4.98L100.46 11.91C100.53 12.04 100.63 12.10 100.74 12.10L100.86 12.10C100.98 12.10 101.07 12.04 101.14 11.91L105.03 4.98C105.01 5.12 105.01 5.25 105.01 5.38L105.01 13.26C104.85 13.26 104.68 13.27 104.54 13.27C104.40 13.27 104.29 13.29 104.22 13.29L104.08 13.29C103.89 13.30 103.80 13.38 103.80 13.54L103.80 13.82L105.01 13.82L105.64 13.82L106.82 13.82L106.82 13.54C106.82 13.38 106.72 13.30 106.54 13.29L106.41 13.29C106.34 13.29 106.23 13.27 106.09 13.27C105.95 13.27 105.81 13.26 105.64 13.26L105.64 4.47C105.81 4.47 105.95 4.45 106.09 4.45C106.23 4.45 106.34 4.44 106.41 4.44ZM135.27 4.44C135.45 4.42 135.55 4.34 135.55 4.19L135.55 3.92L134.37 3.92L133.64 3.92L132.47 3.92L132.47 4.19C132.47 4.34 132.57 4.42 132.75 4.44L132.87 4.44C132.94 4.44 133.06 4.45 133.20 4.45C133.34 4.45 133.48 4.47 133.64 4.47L133.64 8.53L127.44 8.53L127.44 4.47C127.61 4.47 127.76 4.45 127.90 4.45C128.04 4.45 128.14 4.44 128.21 4.44L128.35 4.44C128.53 4.42 128.62 4.34 128.62 4.19L128.62 3.92L127.44 3.92L126.73 3.92L125.54 3.92L125.54 4.19C125.54 4.34 125.64 4.42 125.82 4.44L125.96 4.44C126.03 4.44 126.13 4.45 126.27 4.45C126.41 4.45 126.56 4.47 126.73 4.47L126.73 13.26C126.56 13.26 126.41 13.27 126.27 13.27C126.13 13.27 126.03 13.29 125.96 13.29L125.82 13.29C125.64 13.30 125.54 13.38 125.54 13.54L125.54 13.82L126.73 13.82L127.44 13.82L128.62 13.82L128.62 13.54C128.62 13.38 128.53 13.30 128.35 13.29L128.21 13.29C128.14 13.29 128.04 13.27 127.90 13.27C127.76 13.27 127.61 13.26 127.44 13.26L127.44 9.07L133.64 9.07L133.64 13.26C133.48 13.26 133.34 13.27 133.20 13.27C133.06 13.27 132.94 13.29 132.87 13.29L132.75 13.29C132.57 13.30 132.47 13.38 132.47 13.54L132.47 13.82L133.64 13.82L134.37 13.82L135.55 13.82L135.55 13.54C135.55 13.38 135.45 13.30 135.27 13.29L135.14 13.29C135.07 13.29 134.96 13.27 134.82 13.27C134.68 13.27 134.54 13.26 134.37 13.26L134.37 4.47C134.54 4.47 134.68 4.45 134.82 4.45C134.96 4.45 135.07 4.44 135.14 4.44ZM145.08 3.92L143.89 3.92L143.89 4.19C143.89 4.34 143.99 4.42 144.17 4.44L144.31 4.44C144.38 4.44 144.48 4.45 144.62 4.45C144.76 4.45 144.91 4.47 145.08 4.47L145.08 13.26C144.91 13.26 144.76 13.27 144.62 13.27C144.48 13.27 144.38 13.29 144.31 13.29L144.17 13.29C143.99 13.30 143.91 13.38 143.91 13.54L143.91 13.82L145.08 13.82L151.02 13.82L151.02 13.22L151.02 11.76L150.67 11.76C150.47 11.76 150.39 11.89 150.37 12.11C150.37 12.14 150.36 12.19 150.36 12.29C150.36 12.39 150.36 12.53 150.35 12.74C150.33 12.95 150.32 13.09 150.32 13.22L145.80 13.22L145.80 9.09L149.74 9.09L149.74 8.51L145.80 8.51L145.80 4.51L150.32 4.51C150.35 5.12 150.37 5.50 150.37 5.63C150.39 5.85 150.47 5.96 150.67 5.96L151.02 5.96L151.02 4.51L151.02 3.92ZM167.59 13.29L167.50 13.29L167.31 13.29C167.23 13.29 167.15 13.27 167.06 13.27L164.09 9.53C164.01 9.42 163.90 9.32 163.79 9.25C164.22 9.21 164.61 9.11 164.96 8.96C165.31 8.81 165.59 8.61 165.84 8.37C166.08 8.13 166.28 7.85 166.40 7.55C166.53 7.24 166.60 6.89 166.60 6.51C166.60 5.66 166.32 5.03 165.76 4.58C165.20 4.14 164.35 3.92 163.20 3.92L160.79 3.92L159.61 3.92L159.61 4.19C159.61 4.34 159.70 4.42 159.88 4.44L160.02 4.44C160.09 4.44 160.19 4.45 160.33 4.45C160.47 4.45 160.62 4.47 160.79 4.47L160.79 13.26C160.62 13.26 160.47 13.27 160.33 13.27C160.19 13.27 160.09 13.29 160.02 13.29L159.88 13.29C159.70 13.30 159.60 13.38 159.60 13.54L159.60 13.82L160.79 13.82L161.50 13.82L162.68 13.82L162.68 13.54C162.68 13.38 162.58 13.30 162.40 13.29L162.26 13.29C162.19 13.29 162.09 13.27 161.95 13.27C161.81 13.27 161.67 13.26 161.50 13.26L161.50 9.34L162.68 9.34C162.88 9.34 163.02 9.35 163.10 9.39C163.18 9.44 163.27 9.52 163.35 9.62L166.53 13.64C166.59 13.71 166.63 13.75 166.68 13.78C166.74 13.80 166.81 13.82 166.88 13.82L166.95 13.82L167.50 13.82L167.86 13.82L167.86 13.54C167.86 13.38 167.78 13.30 167.59 13.29ZM163.10 8.81L161.50 8.81L161.50 4.48L163.20 4.48C164.08 4.48 164.75 4.66 165.21 5.00C165.68 5.33 165.90 5.87 165.90 6.57C165.90 6.92 165.84 7.21 165.72 7.49C165.59 7.77 165.40 7.99 165.16 8.19C164.92 8.39 164.63 8.55 164.28 8.65C163.93 8.75 163.53 8.81 163.10 8.81ZM177.25 3.92L176.06 3.92L176.06 4.19C176.06 4.34 176.16 4.42 176.34 4.44L176.48 4.44C176.55 4.44 176.65 4.45 176.79 4.45C176.93 4.45 177.09 4.47 177.25 4.47L177.25 13.26C177.09 13.26 176.93 13.27 176.79 13.27C176.65 13.27 176.55 13.29 176.48 13.29L176.34 13.29C176.16 13.30 176.08 13.38 176.08 13.54L176.08 13.82L177.25 13.82L183.19 13.82L183.19 13.22L183.19 11.76L182.84 11.76C182.64 11.76 182.56 11.89 182.55 12.11C182.55 12.14 182.53 12.19 182.53 12.29C182.53 12.39 182.53 12.53 182.52 12.74C182.50 12.95 182.49 13.09 182.49 13.22L177.97 13.22L177.97 9.09L181.92 9.09L181.92 8.51L177.97 8.51L177.97 4.51L182.49 4.51C182.52 5.12 182.55 5.50 182.55 5.63C182.56 5.85 182.64 5.96 182.84 5.96L183.19 5.96L183.19 4.51L183.19 3.92ZM192.89 3.91L192.25 3.91L192.25 7.91L192.25 8.51C192.25 8.69 192.25 8.89 192.26 9.09C192.26 9.28 192.29 9.49 192.30 9.70C192.32 9.91 192.32 10.14 192.33 10.40L192.79 10.40C192.81 10.14 192.82 9.91 192.84 9.70C192.85 9.49 192.86 9.28 192.86 9.09C192.86 8.89 192.89 8.69 192.89 8.51L192.89 7.91ZM191.90 13.27C191.90 13.45 191.95 13.61 192.08 13.73C192.21 13.86 192.36 13.92 192.54 13.92C192.63 13.92 192.71 13.90 192.79 13.87C192.88 13.85 192.95 13.79 193.00 13.73C193.06 13.68 193.12 13.62 193.14 13.54C193.17 13.45 193.20 13.37 193.20 13.27C193.20 13.19 193.17 13.10 193.14 13.02C193.12 12.94 193.06 12.88 193.00 12.82C192.95 12.77 192.88 12.71 192.79 12.68C192.71 12.66 192.63 12.63 192.54 12.63C192.44 12.63 192.37 12.66 192.29 12.68C192.21 12.71 192.14 12.77 192.08 12.82C192.02 12.88 191.97 12.94 191.94 13.02C191.91 13.10 191.90 13.19 191.90 13.27Z"></path></g></svg>