<svg data-v-fde0c5aa="" xmlns="http://www.w3.org/2000/svg" viewBox="0 0 300 300" class="font"><!----><defs data-v-fde0c5aa=""><!----></defs><rect data-v-fde0c5aa="" fill="transparent" x="0" y="0" width="300px" height="300px" class="logo-background-square"></rect><defs data-v-fde0c5aa=""><linearGradient data-v-fde0c5aa="" gradientTransform="rotate(25)" id="1b41c0b2-2fc5-42e3-ad51-2758e7d29802" x1="0%" y1="0%" x2="100%" y2="0%"><stop data-v-fde0c5aa="" offset="0%" stop-color="#E90DCA" stop-opacity="1"></stop><stop data-v-fde0c5aa="" offset="100%" stop-color="#1536F1" stop-opacity="1"></stop></linearGradient></defs><g data-v-fde0c5aa="" id="ba1e9f5d-2b1f-4a18-b705-ca37983ca8c7" fill="url(#1b41c0b2-2fc5-42e3-ad51-2758e7d29802)" transform="matrix(2.184490203857422,0,0,2.184490203857422,37.269387324993026,134.80687081975597)"><path d="M8.16 10.64L7.52 7.97C7.15 6.43 6.72 5.94 5.80 5.68C7.08 5.40 7.77 4.62 7.77 3.30C7.77 2.13 7.35 1.41 6.48 1.05C5.94 0.83 5.19 0.76 4.21 0.76L1.25 0.76L1.25 10.64L2.37 10.64L2.37 6.03L3.93 6.03C4.56 6.03 5.01 6.08 5.46 6.34C5.89 6.61 6.22 7.25 6.43 8.12L7.01 10.64ZM2.37 5.33L2.37 1.44L4.26 1.44C5.00 1.44 5.46 1.50 5.84 1.67C6.43 1.92 6.59 2.56 6.59 3.33C6.59 4.13 6.34 4.70 5.85 5.01C5.52 5.24 4.93 5.33 4.12 5.33ZM15.16 7.10L15.16 6.82C15.16 6.06 15.09 5.33 14.83 4.76C14.43 3.93 13.85 3.40 12.43 3.40C10.50 3.40 9.39 4.72 9.39 7.08C9.39 9.67 10.49 10.82 12.56 10.82C13.68 10.82 14.39 10.56 14.88 10.29L14.88 9.49C14.31 9.80 13.71 10.11 12.73 10.11C11.28 10.11 10.49 9.09 10.47 7.10ZM14.03 6.51L10.50 6.51C10.56 4.61 11.49 4.02 12.39 4.02C13.78 4.02 14.03 5.00 14.03 6.51ZM20.89 10.64L21.91 10.64C21.74 10.11 21.73 9.56 21.73 9.09L21.73 5.80C21.73 4.79 21.53 4.33 21.17 3.95C20.73 3.51 20.03 3.40 19.33 3.40C18.65 3.40 17.74 3.56 17.00 3.91L17.00 4.72C17.86 4.24 18.62 4.14 19.21 4.14C19.73 4.14 20.13 4.28 20.37 4.59C20.61 4.90 20.69 5.39 20.69 5.91L20.69 6.54C20.44 6.52 20.08 6.51 19.81 6.51C17.36 6.51 16.32 7.28 16.32 8.65C16.32 9.90 17.15 10.81 18.58 10.81C19.70 10.81 20.36 10.32 20.72 9.66C20.73 9.93 20.82 10.40 20.89 10.64ZM20.69 7.11L20.69 8.11C20.69 8.57 20.62 9.03 20.36 9.34C19.99 9.79 19.45 10.09 18.79 10.09C17.89 10.09 17.39 9.52 17.39 8.62C17.39 7.78 17.99 7.10 20.01 7.10C20.23 7.10 20.50 7.10 20.69 7.11ZM25.12 10.64L25.12 0.20L24.05 0.20L24.05 10.64ZM38.60 5.54C38.60 2.21 37.35 0.55 34.61 0.55C32.03 0.55 30.38 2.16 30.38 5.70C30.38 9.14 31.71 10.84 34.41 10.84C37.24 10.84 38.60 9.09 38.60 5.54ZM37.42 5.66C37.42 8.78 36.44 10.14 34.44 10.14C32.65 10.14 31.56 8.92 31.56 5.67C31.56 2.65 32.61 1.25 34.55 1.25C36.60 1.25 37.42 2.69 37.42 5.66ZM45.00 10.64L46.03 10.64L46.03 6.48C46.03 5.64 46.00 5.25 45.95 4.87C45.79 3.78 44.97 3.40 43.99 3.40C43.34 3.40 42.18 3.68 41.54 4.61C41.54 4.48 41.48 3.82 41.43 3.58L40.39 3.58C40.49 4.24 40.53 5.43 40.53 6.26L40.53 10.64L41.58 10.64L41.58 6.40C41.58 5.59 41.64 5.32 41.89 4.94C42.27 4.40 42.97 4.12 43.60 4.12C44.31 4.12 44.72 4.40 44.87 4.94C44.97 5.31 45.00 5.82 45.00 6.68ZM49.43 10.64L49.43 0.20L48.37 0.20L48.37 10.64ZM52.88 10.64L52.88 3.58L51.81 3.58L51.81 10.64ZM52.99 1.40C52.99 0.87 52.79 0.70 52.36 0.70C51.91 0.70 51.69 0.88 51.69 1.40C51.69 1.95 51.90 2.10 52.33 2.10C52.78 2.10 52.99 1.92 52.99 1.40ZM59.74 10.64L60.77 10.64L60.77 6.48C60.77 5.64 60.75 5.25 60.69 4.87C60.54 3.78 59.71 3.40 58.73 3.40C58.09 3.40 56.92 3.68 56.28 4.61C56.28 4.48 56.22 3.82 56.17 3.58L55.13 3.58C55.23 4.24 55.27 5.43 55.27 6.26L55.27 10.64L56.32 10.64L56.32 6.40C56.32 5.59 56.38 5.32 56.63 4.94C57.01 4.40 57.71 4.12 58.34 4.12C59.05 4.12 59.46 4.40 59.61 4.94C59.71 5.31 59.74 5.82 59.74 6.68ZM68.39 7.10L68.39 6.82C68.39 6.06 68.32 5.33 68.05 4.76C67.66 3.93 67.07 3.40 65.66 3.40C63.73 3.40 62.62 4.72 62.62 7.08C62.62 9.67 63.71 10.82 65.79 10.82C66.91 10.82 67.62 10.56 68.11 10.29L68.11 9.49C67.54 9.80 66.93 10.11 65.95 10.11C64.51 10.11 63.71 9.09 63.70 7.10ZM67.26 6.51L63.73 6.51C63.78 4.61 64.72 4.02 65.62 4.02C67.00 4.02 67.26 5.00 67.26 6.51ZM77.63 8.05C77.63 9.27 76.97 10.08 75.42 10.08C74.40 10.08 73.60 9.73 72.86 9.35L72.86 10.32C73.51 10.63 74.54 10.84 75.40 10.84C77.49 10.84 78.72 9.67 78.72 8.06C78.72 6.72 78.18 5.94 76.47 5.17L75.54 4.76C74.38 4.26 74.03 3.67 74.03 3.07C74.03 1.86 74.76 1.30 76.06 1.30C76.97 1.30 77.59 1.58 78.27 1.92L78.27 0.98C77.64 0.70 76.87 0.55 76.03 0.55C74.20 0.55 73.01 1.55 73.01 3.16C73.01 4.47 73.65 5.21 75.10 5.84L76.05 6.24C77.14 6.72 77.63 7.28 77.63 8.05ZM85.16 10.64L86.20 10.64L86.20 6.48C86.20 5.64 86.20 5.25 86.11 4.87C85.89 3.81 85.19 3.40 84.17 3.40C83.50 3.40 82.47 3.61 81.76 4.41L81.76 0.20L80.70 0.20L80.70 10.64L81.75 10.64L81.75 6.24C81.75 5.46 81.77 5.17 82.05 4.82C82.46 4.33 83.19 4.13 83.76 4.13C84.48 4.13 84.85 4.42 85.02 4.98C85.12 5.33 85.16 5.85 85.16 6.71ZM94.23 7.10C94.23 4.52 93.31 3.40 91.24 3.40C89.25 3.40 88.05 4.69 88.05 7.11C88.05 9.53 89.11 10.81 91.11 10.81C93.30 10.81 94.23 9.42 94.23 7.10ZM93.14 7.08C93.14 8.96 92.64 10.19 91.17 10.19C89.81 10.19 89.14 9.14 89.14 7.13C89.14 5.00 89.91 4.03 91.21 4.03C92.58 4.03 93.14 4.98 93.14 7.08ZM97.16 4.41C97.13 4.19 97.08 3.79 97.03 3.58L96.01 3.58C96.08 4.03 96.14 4.69 96.14 5.22L96.14 13.71L97.19 13.71L97.19 10.16C97.68 10.60 98.28 10.79 99.11 10.79C100.35 10.79 101.96 10.08 101.96 7.01C101.96 4.63 100.98 3.43 99.30 3.43C98.39 3.43 97.72 3.77 97.16 4.41ZM97.17 7.18C97.17 5.29 97.27 4.93 97.78 4.52C98.03 4.33 98.52 4.06 99.09 4.06C100.23 4.06 100.87 4.98 100.87 7.03C100.87 9.25 100.11 10.16 98.99 10.16C98.41 10.16 97.90 10.05 97.54 9.65C97.22 9.30 97.17 8.74 97.17 7.18Z"></path></g><!----><!----></svg>